<svg enable-background="new 0 0 133 32" viewBox="0 0 133 32" xmlns="http://www.w3.org/2000/svg"><g fill="#3e5170" transform="translate(42.563 7.842)"><path d="m8.5 2.5h-5.7v3l8.5 1.6v7c-3.7 1-7.6 1-11.3 0v-4.2h2.8v2.4h5.7v-3l-8.5-1.7v-6.9c3.7-1 7.6-1 11.3 0v4.2h-2.8z"/><path d="m18.1 18.2h-2.9l1.4-3.6-4-10.7h2.9l2.5 7.6 2.4-7.6h2.9z"/><path d="m34.5 3.9v10.6h-2.7v-8.4c-1.6 0-3.2.3-4.6.9v7.5h-2.7v-10.6h2.4l.2 1c1.7-.8 3.6-1.2 5.5-1.1.7-.1 1.3 0 1.9.1z"/><path d="m46.8 4.4v3.3h-2.7v-1.8h-4.6v6.6h4.6v-1.8h2.7v3.3c-1.6.5-3.3.8-5 .8s-3.4-.3-5-.8v-9.6c1.6-.5 3.3-.8 5-.8s3.4.3 5 .8z"/><path d="m54.3 2.8v11.7h-2.9v-11.7h-4.5v-2.5h11.9v2.5z"/><path d="m66.1 6.1c-1.4 0-2.8.3-4.2.9v7.5h-2.7v-10.6h2.4l.3 1.1c1.3-.8 2.7-1.3 4.2-1.3z"/><path d="m70.5 12.5h4.6v-1.3h2.7v2.8c-1.6.5-3.3.8-5 .8s-3.4-.3-5-.8v-9.6c1.6-.5 3.3-.8 5-.8s3.4.3 5 .8v5.5h-7.4zm0-4.4h4.6v-2.3h-4.6z"/><path d="m82.8 12.5h4.6v-1.3h2.7v2.8c-1.6.5-3.3.8-5 .8s-3.4-.3-5-.8v-9.6c1.6-.5 3.3-.8 5-.8s3.4.3 5 .8v5.5h-7.4zm0-4.4h4.6v-2.3h-4.6z"/></g><path d="m8 0c-4.4 0-8 3.6-8 8v14c0 4.4 3.6 8 8 8v-6.7c-.7 0-1.3-.6-1.3-1.3v-14c0-.7.6-1.3 1.3-1.3h17.3v15.3c0 .7-.6 1.3-1.3 1.3v6.7c4.4 0 8-3.6 8-8v-22z" fill="#5cce59"/><path d="m11.9 20h8v12h-8z" fill="#3e5170"/></svg>