<svg xmlns="http://www.w3.org/2000/svg" width="133" height="32" viewBox="0 0 133 32">
    <defs>
        <style>
            .prefix__cls-1{fill:#fff}
        </style>
    </defs>
    <g id="prefix__LOGO_Synctree_GNB_M">
        <g id="prefix__LOGO_Synctree_onDark">
            <g id="prefix__그룹_214" data-name="그룹 214" transform="translate(42.563 7.842)">
                <path id="prefix__패스_83" d="M168.926 248.095h-5.695v2.973l8.491 1.649v6.983a22.692 22.692 0 0 1-11.288 0v-4.2h2.8v2.4h5.695v-3.054l-8.491-1.649v-6.9a22.692 22.692 0 0 1 11.288 0v4.203h-2.8z" class="prefix__cls-1" data-name="패스 83" transform="translate(-160.435 -245.591)"/>
                <path id="prefix__패스_84" d="M188.477 266.782h-2.9l1.358-3.643-3.911-10.646h2.857l2.452 7.593 2.412-7.593h2.855z" class="prefix__cls-1" data-name="패스 84" transform="translate(-170.42 -248.624)"/>
                <path id="prefix__패스_85" d="M214.344 252.416v10.646h-2.716v-8.448a10.978 10.978 0 0 0-4.641.937v7.511h-2.715V252.4h2.412l.243 1.017a13.45 13.45 0 0 1 5.532-1.14 9.985 9.985 0 0 1 1.885.139z" class="prefix__cls-1" data-name="패스 85" transform="translate(-179.81 -248.528)"/>
                <path id="prefix__패스_86" d="M236.39 252.849v3.3h-2.716v-1.791h-4.641v6.554h4.641v-1.772h2.716v3.277a15.925 15.925 0 0 1-5.046.794 15.707 15.707 0 0 1-5.027-.794v-9.568a15.69 15.69 0 0 1 5.027-.794 15.908 15.908 0 0 1 5.046.794z" class="prefix__cls-1" data-name="패스 86" transform="translate(-189.553 -248.432)"/>
                <path id="prefix__패스_87" d="M251.855 248.6v11.746h-2.877V248.6h-4.5v-2.5h11.876v2.5z" class="prefix__cls-1" data-name="패스 87" transform="translate(-197.581 -245.815)"/>
                <path id="prefix__패스_88" d="M273.487 254.644a11.774 11.774 0 0 0-4.174.9v7.491H266.6v-10.671h2.412l.243 1.1a7.77 7.77 0 0 1 4.235-1.262z" class="prefix__cls-1" data-name="패스 88" transform="translate(-207.356 -248.496)"/>
                <path id="prefix__패스_89" d="M284.568 260.91h4.64v-1.323h2.716v2.83a15.918 15.918 0 0 1-5.046.794 15.694 15.694 0 0 1-5.025-.794v-9.568a15.677 15.677 0 0 1 5.025-.794 15.9 15.9 0 0 1 5.046.794v5.517h-7.356zm0-4.376h4.64v-2.3h-4.64z" class="prefix__cls-1" data-name="패스 89" transform="translate(-214.099 -248.432)"/>
                <path id="prefix__패스_90" d="M306.613 260.91h4.641v-1.323h2.716v2.83a15.923 15.923 0 0 1-5.046.794 15.707 15.707 0 0 1-5.027-.794v-9.568a15.69 15.69 0 0 1 5.027-.794 15.905 15.905 0 0 1 5.046.794v5.517h-7.356zm0-4.376h4.641v-2.3h-4.641z" class="prefix__cls-1" data-name="패스 90" transform="translate(-223.842 -248.432)"/>
            </g>
            <g id="prefix__그룹_215" data-name="그룹 215">
                <path id="prefix__패스_91" fill="#5cce59" d="M92.123 231.6a7.981 7.981 0 0 0-7.963 8v14a7.981 7.981 0 0 0 7.963 8v-6.665a1.333 1.333 0 0 1-1.328-1.334v-14a1.333 1.333 0 0 1 1.328-1.334h17.259V253.6a1.333 1.333 0 0 1-1.328 1.334v6.666a7.981 7.981 0 0 0 7.963-8v-22z" data-name="패스 91" transform="translate(-84.16 -231.601)"/>
                <path id="prefix__사각형_567" d="M0 0H7.964V12H0z" class="prefix__cls-1" data-name="사각형 567" transform="translate(11.946 20)"/>
            </g>
        </g>
        <path id="prefix__사각형_568" fill="rgba(69,69,69,0)" d="M0 0H133V32H0z" data-name="사각형 568"/>
    </g>
</svg>
